<?xml version="1.0" encoding="UTF-8"?>
<svg width="600" height="600" version="1.1" xmlns="http://www.w3.org/2000/svg">
 <path d="m183.47 286.65c3.5204-0.29334 6.7473-0.58669 9.9782-0.58669 3.8137 0 6.4579-1.7601 8.8048-4.4002 3.5204-4.1108 4.6977-9.0977 4.6977-14.382l-1e-5 -100.08c0-2.6597-0.59063-5.0065-1.1774-7.3532-2.0535-5.2803-6.454-6.7274-11.152-3.794-3.227 1.7601-6.1645 3.794-9.0982 5.554-1.4668 1.1734-2.0535 2.3468-2.0535 4.4198v117.69zm0 7.0442v39.035l1e-5 98.616c0 1.4667 0.29336 2.644 1.7602 3.5241 2.9336 1.7601 5.5739 3.8135 8.5114 5.5736 5.8712 3.5241 10.858 1.764 12.618-4.9869 0.29728-1.1734 0.59064-2.644 0.59064-3.8174v-119.16c0-5.2842-1.1774-10.275-4.6977-14.675-1.7602-2.3468-4.111-3.8174-7.0446-3.8174-3.8137-0.29335-7.6313-0.29335-11.738-0.29335zm-29.645-110.34c2.9336-3.2464 5.8672-6.1798 8.8048-9.4262 9.3915-10.248 20.84-18.774 32.872-26.401 4.9911-2.9335 10.272-4.9674 16.143-4.1069 9.0982 1.1734 14.676 7.0403 18.2 14.667 2.9336 6.1799 4.1071 12.634 4.1071 19.4 0 23.167 0 46.059-0.29336 69.246 0 12.915-3.8137 24.946-13.209 34.635-2.9336 2.9335-6.1606 5.2802-9.6849 8.2176 1.1734 0.58669 2.0535 1.1734 3.227 2.0534 12.036 8.2176 17.907 20.253 19.374 34.635 0.58672 4.1069 0.58672 8.511 0.58672 12.911l1e-5 78.95c0 7.9282-1.1734 15.559-4.9911 22.6-4.4004 7.9243-10.858 13.208-20.25 12.915-5.2844 0-9.6849-2.0534-14.089-4.9908-14.676-9.0977-27.885-19.955-39.037-33.457-0.58672-0.5867-1.1734-1.1734-1.7602-1.4667v-5.8709c2.0535 1.7601 4.1071 3.8174 6.4579 6.1642v-231.26c-2.3508 2.6206-4.4044 4.6936-6.4579 6.7274zm239.21 102.12c3.8137 0.29335 7.6313 0.29335 11.167 0.5867 3.2074 0 5.8672-1.1734 7.9012-3.5202 3.2465-3.5241 4.42-7.9243 4.42-12.622 0-29.644-0.31292-59.284 0-89.225 0-7.627-2.6598-14.394-7.0407-20.534-4.1071-5.5932-10.577-7.627-16.448-11.147zm52.825 128.26c-3.2074 3.2268-6.454 6.7509-9.9743 9.9777-2.034 2.3507-4.6938 4.4041-7.3536 5.5775-4.3809 2.3468-8.2142 1.1734-9.6614-3.5241-1.4864-4.4002-2.3469-9.0977-2.3469-13.791-0.31292-33.755 0-67.505 0-101.26 0-4.6975-1.1735-9.1016-4.42-12.915-2.3469-2.6401-4.9676-4.1108-8.8009-4.1108h-10.268v154.09c2.6403-1.1734 4.9872-2.6401 7.6313-4.1069 0 2.6401 0.29336 4.9869 0 7.3376 0 0.29335-0.58673 0.88004-1.1734 1.1734-12.622 8.2176-26.418 14.382-41.094 18.489h-1.1734c0-2.6401 0-5.2803 0.29336-7.9243 0-0.29334 0.58673-0.88004 1.1734-0.88004 1.7641-0.58669 3.5243-1.1734 5.2844-1.7601 1.4668-0.29335 2.0535-1.1734 2.0535-2.9335l-1e-5 -317.27c0-2.0339-0.58673-2.9335-2.3469-3.2464-2.0535-0.5867-4.9911-0.86049-5.8712-2.3468-1.1734-1.4472-0.29336-4.3807-0.58672-6.7274 0-0.3129 0.29336-0.8996 0.29336-1.4863 0.58673 0 1.1734 0 1.7602 0.3129 16.436 4.6936 31.699 12.047 45.784 21.708 9.7005 6.4536 16.741 15.567 22.296 25.815 5.5934 9.7 10.013 19.987 11.461 31.423 0.31292 1.4667 0.31292 2.9335 0.31292 4.4002 0.27381 17.319 0.27381 34.341 0 51.657 0 12.622-5.9064 21.719-17.054 27.59-0.58672 0.29335-1.1734 0.88005-1.7602 1.1734 0 0-0.27381 0-0.27381 0.29335 0.58673 0.5867 1.1734 0.88004 1.7602 1.4667 11.734 7.631 17.602 18.489 17.602 32.577-0.2738 26.417 0 52.83 0 79.247 0 1.4667 0 2.9335 0.31292 4.4002 0.27381 2.3468 1.7602 2.9374 3.7942 1.4667 0.89964-0.5867 1.4864-1.1734 2.3469-1.7601zm-148.22 68.679c-1.7602-0.29335-3.5204-0.29335-4.9872-0.5867-10.276-2.0573-17.613-7.9243-23.774-15.849-9.3954-12.035-14.089-25.537-14.089-40.799l-1e-5 -254.18c0-17.875 6.7512-33.442 19.663-46.075 14.969-14.354 36.103-13.494 49.899 1.7601 11.445 12.634 17.316 27.614 17.023 44.628v56.057c-9.6849-0.29335-19.076-0.88004-28.765-1.4667v-79.818c0-7.0403-1.4668-13.22-6.4579-18.5-4.6938-5.0065-11.445-4.6936-16.143 0.27379-4.6938 5.0065-6.454 11.186-6.454 17.914v14.667l1e-5 289.69c0 7.3376 1.4668 13.791 6.7473 19.075 4.6977 4.9908 11.156 4.9908 15.849 0 4.111-4.1069 5.8712-9.0977 6.4579-14.675v-83.354c9.6888-0.5867 19.08-1.1734 28.765-1.7601v2.6401c0 18.493 0.29336 37.275 0 56.061-0.29336 17.609-7.0446 32.577-19.96 44.906-5.8672 5.2802-12.618 8.8043-20.837 9.0977-0.29336 0-0.88009 0.29335-1.1734 0.29335zm250.35-241.26h-5.5543l-8.2142-0.88004 1.7602 7.9243 7.3145-4.4002 4.6938-2.3468zm-23.156 20.253-1.1734-5.2842 7.6274-4.9869-2.6598-11.155-8.8009-1.1734-1.4473-5.2842 34.03 4.1108 1.1734 5.2842zm-0.31292-45.492s-1.1734 0.88005-2.6207 1.7601l-2.6598 1.764 0.31292 0.29335 6.1411-0.58669 21.709-0.29335 1.7993 5.2802h-34.069l-2.034-5.2802 26.403-21.731 2.034 4.9986zm-6.1411-27.868c1.4473 3.2073 4.1071 4.6936 7.3145 2.9335 3.2465-1.4863 2.9336-4.1069 1.4864-7.3532l-3.5204-6.4536-8.8009 4.4198zm-7.3536-4.1069-11.148 5.554-2.3469-4.6936 28.476-14.667 5.8672 11.147c2.9336 5.5932 2.3469 11.147-3.8333 14.394-5.2805 2.9335-9.6614 0.86048-12.321-2.9335l-6.7669 14.37-2.9336-5.5775 6.7669-14.386zm-10.287-28.2 8.2142 12.047-4.3809 2.9335-8.2142-12.047-6.7669 4.4198 8.8009 13.22-4.1071 3.2073-12.008-17.601 26.403-18.188 12.047 17.601-4.42 2.9335-8.8009-13.22zm-15.255-19.948c2.3469 3.8331 4.1071 7.9399 2.6598 12.047-0.58672 1.1734-1.1734 2.0339-2.3469 3.2073-0.31292 0-0.31292 0.31291-0.58672 0.5867-5.0067 3.8331-10.874 1.1734-14.981-3.2073-3.2465-3.8331-4.42-9.1133-2.0731-14.12l5.0067 2.073c-1.4864 3.2464-0.86053 6.4536 1.1734 8.5266 2.3469 2.6206 5.2805 4.1069 7.6274 2.3468l0.31292-0.3129c0.58673-0.5867 0.86053-0.86049 0.86053-1.4472 0.58673-2.073-0.58672-4.4198-2.3469-7.0403-2.6207-4.7327-4.6938-10.287 0-14.394 4.6938-3.8331 10.874-1.7601 14.394 2.6206 3.2074 3.5202 4.9676 8.2137 2.6207 13.22l-4.9676-2.0339c1.4473-3.2464 0.58673-5.5932-1.4864-7.9399-2.034-2.073-5.2805-3.5202-7.3145-1.7601-2.0731 1.7601-0.31292 4.6936 1.4472 7.627zm-25.542-24.367 11.148 9.7-3.5204 3.794-10.835-9.6609-5.5934 6.1407 12.047 10.561-3.5204 4.1069-15.842-14.354 21.396-24.094 15.881 14.12-3.5204 4.1069-12.047-10.561zm-20.222-13.807c2.9336 2.073 5.5543 2.073 7.6274-0.86049 2.034-2.9335 0.86053-5.2803-2.0731-7.3532l-6.141-4.1069-5.5934 8.2137zm-8.84-0.27379-7.0407 10.287-4.1071-2.9335 18.228-26.714 10.248 7.0403c5.2805 3.794 7.3536 8.8004 3.5204 14.667-3.2074 5.0065-7.9012 5.2803-12.321 3.2464l0.89965 15.841-5.2805-3.5202-0.89964-15.841zm-33.15-24.954 13.514 6.1799-2.3469 4.6936-13.221-6.1799-3.5204 7.627 14.668 6.4536-2.3469 5.0065-19.366-8.8004 13.499-29.374 19.362 8.8395-2.3469 4.6936-14.355-6.7665zm-28.468 3.8331c3.227 0.86049 6.7512 0.5867 7.6313-2.6597l3.8137-11.421c0.88009-3.2464-1.7602-5.5932-5.2844-6.7665l-5.8672-1.7601-6.4579 20.534zm7.9247-25.854c5.8672 1.7601 10.565 6.4536 8.5114 13.22l-3.5243 11.734c-2.3469 6.7665-8.5114 7.627-14.676 5.867l-10.858-3.5202 9.3915-30.821zm-50.779-10.561 4.9911 0.8996-3.5243 26.714 14.676 1.7601-0.88009 5.2803-19.663-2.6597zm-22.894 4.4198-1.4668 4.9674-2.6403 7.9399 7.9247 0.27379-2.3508-8.2137-1.1734-4.9674zm14.089 26.988h-5.5778l-2.9336-8.4875-11.449-0.3129-3.227 8.5266-5.5778-0.3129 12.329-31.994 5.2844 0.3129zm-44.615-15.841c3.5243-0.5867 5.8712-2.3468 5.2844-5.867-0.29336-3.5202-2.9375-4.4198-6.4579-4.1069l-7.0446 0.86049 1.1734 9.9738zm-6.7512 5.2803 1.4668 12.321-5.2805 0.8996-3.5243-32.307 12.329-1.1734c6.4579-0.86049 11.445 1.4863 12.329 8.5266 0.88008 5.867-2.6442 9.0742-7.338 10.561l11.445 11.46-6.4579 0.5867-10.858-11.147zm-24.654-9.9738 6.4579 26.127-4.9911 1.1734-6.4579-26.127-9.3915 2.3468-1.4668-5.0065 24.361-5.867 1.1734 5.0065zm-36.103 40.208-11.738-29.921 5.2844-2.073 17.316 13.807 5.5778 4.6936v-0.3129l-3.2309-6.1407-6.4579-17.053 4.6977-2.0339 11.738 30.234-5.5739 2.0339-17.027-13.181-4.9872-4.6936h-0.29337l3.227 6.1407 6.4579 16.74zm-28.468-5.867 12.618-7.0403 2.6442 4.6936-12.916 7.0403 4.111 7.0403 13.792-7.627 2.6442 4.6936-18.494 10.287-15.556-28.474 18.494-10.287 2.6403 4.6936-14.089 7.9399zm-32.876 17.914c-4.1071-5.5932-1.1734-12.047 3.8176-15.88 3.8137-2.6206 9.0982-3.5202 14.089-0.86049l-2.6442 4.6936c-2.9336-1.4863-6.1606-0.8996-8.5114 0.5867-2.6403 2.0339-4.6938 5.554-2.6403 8.5266l7.338 9.9738c2.0535 2.6206 5.8712 2.0339 8.8048-0.3129 2.3469-1.4472 3.8176-4.3807 3.227-7.627l4.9911-1.1734c1.1734 5.5932-1.4668 10.287-5.2844 13.22-4.9872 3.5202-12.032 4.3806-16.143-1.1734zm-21.423 36.962c2.6403 2.3468 6.454 0.8996 9.3915-2.0339 2.6403-2.9726 4.1071-6.7666 1.4668-9.1133l-8.8048-8.5266c-2.6403-2.6206-6.4579-0.5867-9.0982 2.073-2.6442 2.9335-4.111 6.7274-1.4668 9.3871zm5.8672-23.468 8.8087 8.4875c4.9872 4.6936 2.9336 12.047-1.4707 16.74-4.6938 4.6936-11.738 6.7666-16.729 2.073l-8.8048-8.5266c-4.9911-4.6936-2.9336-11.734 1.4668-16.427 4.6977-5.0065 11.449-7.0403 16.729-2.3468zm-37.273 44.002c-5.5778-4.1069-4.6977-11.147-0.884-16.115 2.6442-3.8331 7.338-6.4536 12.916-5.2803l-0.88009 5.2803c-3.227-0.5867-6.1645 0.86048-7.9247 3.2073-2.0535 2.6597-2.9336 6.7666 0 8.8004l9.9782 7.0403c2.6442 2.073 6.1645 0.3129 8.2181-2.6206 1.7641-2.3468 2.3508-5.5932 0.88009-8.5266l4.4044-2.3468c2.6403 5.0065 1.7602 10.287-0.88009 14.081-3.8176 5.0065-10.272 7.9399-15.849 3.8331zm2.6403 40.513-28.472-15.246 2.9375-5.0065 22.01-0.86049 7.0446 0.27379 0.29336-0.27379-6.454-2.6597-16.44-8.8004 2.6442-4.6936 28.175 15.254-2.9336 5.5932-21.427 0.5867-7.0446-0.31291v0.31291l6.4579 2.6206 15.849 8.5266zm-32.286 7.9243 4.4004 2.9374 6.7512 5.2802 2.6403-7.3376-8.5114-0.29334-4.9872-0.88005zm30.232-4.1069-1.7641 5.2802h-9.0981l-3.8137 10.568 6.7512 5.8709-2.0574 5.2802-26.121-22.306 2.0535-5.2803zm-17.907 38.448c0.29336-1.4667 0.29336-2.644 0-3.8174-0.58672-1.4667-1.7602-2.0534-3.5204-2.6401-1.4668-0.29335-2.9375 0-3.8176 0.88004-1.1734 0.88004-1.7602 2.0534-2.0535 3.5202v0.29726l-1.7602 7.0403 9.3915 2.3507 1.7602-7.0442zm-14.089-2.9374c0.59064-2.3468 0-4.6936-2.9336-5.2803-2.3469-0.58669-4.1071 1.1734-4.6977 3.5202l-1.4668 7.3376 7.338 1.7601zm3.5243-6.1603c2.3469-2.9374 5.5778-3.2307 8.5114-2.3507 7.0446 1.7601 8.2181 7.0442 6.7512 13.208l-2.6403 12.035-31.407-7.3376 2.6414-12.328c1.4676-4.9908 5.2852-8.8043 10.859-7.3376 2.3508 0.58669 4.4043 1.7601 5.2844 4.1108zm236.57 275.59c-73.966 0-141.48-37.568-180.22-100.67l7.9247-4.9869c37.277 60.164 101.55 96.265 172.29 96.265 70.736 0 135.03-36.101 172-96.265l8.2142 4.9869c-39.037 63.101-106.25 100.67-180.21 100.67zm-200.47-235.38-9.3954-1.1734c12.622-105.95 102.73-186.09 209.86-186.09 107.14 0 197.23 80.143 209.86 186.09l-9.3876 1.1734c-12.047-101.26-98.335-177.88-200.47-177.88-102.44 0-188.44 76.622-200.47 177.88zm200.47-252.7c-152.63 0-276.78 124.14-276.78 276.77 6e-6 152.62 124.15 276.77 276.78 276.77 152.63 0 276.79-124.15 276.79-276.77-1e-5 -152.62-124.15-276.77-276.79-276.77zm2e-5 567.02c-159.96 0-289.99-130.31-289.99-290.27-5.5e-6 -159.94 130.03-289.67 289.99-289.67 159.95 0 290.01 129.74 290.01 289.67 1e-5 159.96-130.06 290.27-290.01 290.27zm158.5-103.9c2.9336-2.3468 3.5204-4.9908 1.1734-7.9243-2.3469-2.6401-4.6938-2.0534-7.6274 0.29335l-5.2805 4.6975 6.141 7.631zm-2.6598 7.9243 8.2142 9.6844-4.1071 3.5241-20.809-24.653 9.6614-8.2176c4.6938-4.1108 10.287-4.9908 14.981 0.29335 3.7942 4.6936 2.9336 9.0977-0.31292 12.911l15.881 3.2307-5.0067 4.1069-15.568-3.2268zm-26.989 22.013c2.034 2.9335 6.1802 2.3468 9.3876 0 3.5204-2.0534 5.8672-5.5775 3.8333-8.511l-6.454-10.271c-2.0731-2.9374-6.1802-2.0573-9.4267 0-3.2074 2.0534-5.5543 5.5736-3.7942 8.511zm11.148-21.719 6.454 10.275c3.8333 5.867 0.31292 12.325-5.2805 15.849-5.5543 3.8135-12.908 4.1069-16.428-1.764l-6.7669-10.271c-3.7942-5.8709-0.27381-12.035 5.2805-15.849 5.5934-3.5202 12.947-3.8174 16.741 1.7601zm-31.409 37.568c3.2465-1.4667 5.5934-3.8135 4.1071-7.0442l-4.9676-10.858c-1.4864-3.2307-5.0067-3.2307-8.2298-1.4667l-5.8712 2.6401 9.4072 19.662zm-11.441-24.36c5.8868-2.6401 12.341-2.3468 15.274 4.1069l5.2805 10.862c2.9336 6.4576-1.1734 11.738-6.7669 14.382l-10.557 4.6936-13.502-29.053zm-25.828 15.849 0.29336 5.5775v8.2176l7.6313-2.3507-4.9911-7.0403zm22.014 21.426-5.2844 1.4667-5.5778-7.0442-10.858 3.5202-0.29336 9.1016-5.5778 1.4667 1.4668-34.048 5.2844-1.7601zm-46.961 0.5867s0.58672 1.4667 1.4668 2.9335l1.1734 2.644h0.58673v-6.1642l3.2309-21.426 5.2805-1.1734-4.9872 33.751-5.5778 1.1742-17.61-29.348 5.5739-1.1773zm-33.463-16.435 4.9911-0.29335 2.6403 26.707 14.676-1.4675 0.29336 5.283-19.663 2.0546zm-18.49 5.5736-1.4668 4.9908-2.9375 8.2176h8.2181l-2.6403-8.2176zm13.796 27.297-5.5778-0.29374-2.9336-8.5106-11.449-0.29335-3.227 8.5106-5.5778-0.29335 12.329-31.99 5.5739 0.29334zm-42.854-22.013c4.111 1.4667 8.2181 3.2307 9.6849 7.3376 0.59063 1.1734 0.59063 2.3468 0.29336 3.8174v0.88005c-1.1734 6.1622-7.6313 8.2165-13.205 7.336-4.9911-0.58709-9.3915-4.1088-10.862-9.3934l4.9911-1.4667c0.88009 3.2307 3.5204 5.2842 6.7512 5.5771 3.227 0.58708 6.4579-0.29296 7.0446-3.2264v-0.29726c0-0.5867 0-1.1734-0.29336-1.7601-0.88009-2.0534-3.2309-2.9335-6.1645-3.8135-4.9911-2.0573-10.565-4.6975-9.3915-11.155 1.1734-5.5736 7.0446-8.2176 12.618-7.3376 4.6977 0.88004 9.1021 3.2307 10.569 8.511l-4.9911 1.4706c-1.1734-3.2307-3.5204-4.4041-6.4579-4.6975-2.9336-0.29334-6.1645 0.5867-6.7512 3.2268-0.29336 2.644 2.9375 3.8174 6.1645 4.9908zm-41.97-23.48 4.9872 1.4667-7.9247 25.83 14.089 4.4002-1.4668 4.9908-19.08-5.8709zm-25.538 4.1108 13.502 5.867-2.0535 4.6975-13.502-5.8709-3.227 7.6309 14.676 6.4576-2.0574 4.6975-19.663-8.511 12.912-29.644 19.667 8.511-2.3469 4.9869-14.383-6.4536zm-34.632-19.666 12.325 7.9243-2.9336 4.4041-12.325-7.9243-4.4044 6.747 13.209 8.8082-2.6442 4.4002-17.903-11.738 17.61-27.004 17.907 11.742-2.9375 4.4002-13.502-8.8043zm-28.472-4.9908c2.6442 2.3507 5.8712 3.5241 8.2181 0.88396l7.6313-9.395c2.3508-2.6401 0.88009-5.5736-2.0535-7.9243l-4.6977-4.1069-14.085 16.435zm17.316-20.542c4.6977 4.1069 7.338 9.9777 2.6442 15.555l-7.6313 9.0977c-4.6977 5.5775-10.862 4.1069-15.849 0l-8.8048-7.631 20.837-24.36z" fill="#323a44"/>
 <path d="m506.33 326.27 4.6938 9.6844 10.874 1.7601-7.9404 7.3376 1.7602 10.564-9.3876-4.9869-9.3876 4.9869 1.7602-10.564-7.6274-7.3376 10.561-1.7601zm-412.66 0 4.6938 9.6844 10.569 1.7601-7.6313 7.3376 1.7602 10.564-9.3915-4.9869-9.6849 4.9869 1.7602-10.564-7.6313-7.3376 10.565-1.7601z" fill="#cd8f42"/>
</svg>
